<svg data-v-423bf9ae="" xmlns="http://www.w3.org/2000/svg" viewBox="0 0 192.5048927130419 163" class="iconAbove"><!----><!----><!----><g data-v-423bf9ae="" id="068d159e-4dc4-4803-9f10-65aac9823754" fill="#12292A" transform="matrix(5.870841333886128,0,0,5.870841333886128,-1.6438354941651738,75.64188361777005)"><path d="M9.02 5.08L7.60 5.08L4.66 13.44L4.63 13.44L1.69 5.08L0.28 5.08L3.78 14.88L5.52 14.88ZM11.77 7.88L10.42 7.88L10.42 14.88L11.77 14.88ZM10.35 6.16L11.84 6.16L11.84 4.66L10.35 4.66ZM14.50 7.88L13.17 7.88L15.76 14.88L17.40 14.88L19.99 7.88L18.66 7.88L16.59 13.59L16.56 13.59ZM26.92 13.66L22.75 13.66L22.75 11.86L26.92 11.86L26.92 8.75L25.30 7.81L23.02 7.81L21.39 8.75L21.39 13.94L23.02 14.88L26.92 14.88ZM22.75 9.03L25.56 9.03L25.56 10.64L22.75 10.64ZM33.07 9.10L33.07 7.88L31.51 7.88L30.52 8.46L30.18 7.88L29.16 7.88L29.16 14.88L30.52 14.88L30.52 9.10Z"></path></g><defs data-v-423bf9ae=""><linearGradient data-v-423bf9ae="" gradientTransform="rotate(25)" id="7a361d5e-2f0e-411a-95bd-abdb3f116e01" x1="0%" y1="0%" x2="100%" y2="0%"><stop data-v-423bf9ae="" offset="0%" style="stop-color: rgb(18, 38, 99); stop-opacity: 1;"></stop><stop data-v-423bf9ae="" offset="100%" style="stop-color: rgb(93, 215, 173); stop-opacity: 1;"></stop></linearGradient></defs><g data-v-423bf9ae="" id="7affdb42-2f82-468a-9b50-0ecc4f27855e" transform="matrix(1.4285714285714286,0,0,1.4285714285714286,24.75,-26.035714285714292)" stroke="none" fill="url(#7a361d5e-2f0e-411a-95bd-abdb3f116e01)"><path d="M19.25 18.75v63h27v-27h-9v18h-9v-45h45v45h-9v-18h-9v27h27v-63z"></path></g><!----></svg>