<svg data-v-fde0c5aa="" xmlns="http://www.w3.org/2000/svg" viewBox="0 0 300 300" class="iconAbove"><!----><defs data-v-fde0c5aa=""><!----></defs><rect data-v-fde0c5aa="" fill="#DFE9EC" x="0" y="0" width="300px" height="300px" class="logo-background-square"></rect><defs data-v-fde0c5aa=""><!----></defs><g data-v-fde0c5aa="" id="4c2357d4-f1db-4e69-867c-9e6562be20fc" fill="#12292A" transform="matrix(6.588388608027766,0,0,6.588388608027766,40.138616937358066,161.9647767585656)"><path d="M9.02 5.08L7.60 5.08L4.66 13.44L4.63 13.44L1.69 5.08L0.28 5.08L3.78 14.88L5.52 14.88ZM11.77 7.88L10.42 7.88L10.42 14.88L11.77 14.88ZM10.35 6.16L11.84 6.16L11.84 4.66L10.35 4.66ZM14.50 7.88L13.17 7.88L15.76 14.88L17.40 14.88L19.99 7.88L18.66 7.88L16.59 13.59L16.56 13.59ZM26.92 13.66L22.75 13.66L22.75 11.86L26.92 11.86L26.92 8.75L25.30 7.81L23.02 7.81L21.39 8.75L21.39 13.94L23.02 14.88L26.92 14.88ZM22.75 9.03L25.56 9.03L25.56 10.64L22.75 10.64ZM33.07 9.10L33.07 7.88L31.51 7.88L30.52 8.46L30.18 7.88L29.16 7.88L29.16 14.88L30.52 14.88L30.52 9.10Z"></path></g><defs data-v-fde0c5aa=""><linearGradient data-v-fde0c5aa="" gradientTransform="rotate(25)" id="d81700fe-9e4b-42d7-8495-9c71076b0e6e" x1="0%" y1="0%" x2="100%" y2="0%"><stop data-v-fde0c5aa="" offset="0%" stop-color="#122663" stop-opacity="1"></stop><stop data-v-fde0c5aa="" offset="100%" stop-color="#5DD7AD" stop-opacity="1"></stop></linearGradient></defs><g data-v-fde0c5aa="" id="80bb5bf6-f8eb-4f15-8761-c3bdea24ebec" stroke="none" fill="url(#d81700fe-9e4b-42d7-8495-9c71076b0e6e)" transform="matrix(2.1375661375661377,0,0,2.1375661375661377,41.51851851851852,-0.07936507936508264)"><path d="M19.25 18.75v63h27v-27h-9v18h-9v-45h45v45h-9v-18h-9v27h27v-63z"></path></g><!----></svg>