<svg data-v-fde0c5aa="" xmlns="http://www.w3.org/2000/svg" viewBox="0 0 300 300" class="font"><!----><defs data-v-fde0c5aa=""><!----></defs><rect data-v-fde0c5aa="" fill="#DFE9EC" x="0" y="0" width="300px" height="300px" class="logo-background-square"></rect><defs data-v-fde0c5aa=""><linearGradient data-v-fde0c5aa="" gradientTransform="rotate(25)" id="e4692898-7efb-4885-a785-e3937020cd54" x1="0%" y1="0%" x2="100%" y2="0%"><stop data-v-fde0c5aa="" offset="0%" stop-color="#122663" stop-opacity="1"></stop><stop data-v-fde0c5aa="" offset="100%" stop-color="#5DD7AD" stop-opacity="1"></stop></linearGradient></defs><g data-v-fde0c5aa="" id="8fbf2be2-eef8-4846-96e3-8d65d83702ef" fill="url(#e4692898-7efb-4885-a785-e3937020cd54)" transform="matrix(6.709362423220349,0,0,6.709362423220349,38.12137851350012,84.44952925310812)"><path d="M9.02 5.08L7.60 5.08L4.66 13.44L4.63 13.44L1.69 5.08L0.28 5.08L3.78 14.88L5.52 14.88ZM11.77 7.88L10.42 7.88L10.42 14.88L11.77 14.88ZM10.35 6.16L11.84 6.16L11.84 4.66L10.35 4.66ZM14.50 7.88L13.17 7.88L15.76 14.88L17.40 14.88L19.99 7.88L18.66 7.88L16.59 13.59L16.56 13.59ZM26.92 13.66L22.75 13.66L22.75 11.86L26.92 11.86L26.92 8.75L25.30 7.81L23.02 7.81L21.39 8.75L21.39 13.94L23.02 14.88L26.92 14.88ZM22.75 9.03L25.56 9.03L25.56 10.64L22.75 10.64ZM33.07 9.10L33.07 7.88L31.51 7.88L30.52 8.46L30.18 7.88L29.16 7.88L29.16 14.88L30.52 14.88L30.52 9.10Z"></path></g><!----><!----></svg>